# xmcd
#
# Track frame offsets:
#	150
#	8480
#	20376
#	31018
#	42816
#	54391
#	67067
#	78224
#	87557
#	100873
#	113856
#	127605
#	137704
#	151410
#	164309
#	176706
#	190357
#	202198
#	214164
#	227843
#	239823
#	255271
#	269647
#	280485
#	294791
#	307843
#	321620
#
# Disc length: 4408 seconds
#
# Revision: 1
# Processed by: cddbd v1.4PL0 Copyright (c) Steve Scherf et al.
# Submitted via: audiograbber 1.81.01
#
DISCID=7d11361b
DTITLE=Merle Haggaard - Down Every Road - Disc 1 of 4
DYEAR=1900
DGENRE=Country
TTITLE0=Skid Row
TTITLE1=Sing A Sad Song
TTITLE2=You Don't Even Try
TTITLE3=Sam Hill
TTITLE4=(My Friends Are Gonna Be) Strangers
TTITLE5=Just Between The Two Of Us
TTITLE6=If I Had Left It Up To You
TTITLE7=I'm Gonna Break Every Heart I Can
TTITLE8=Swinging Doors
TTITLE9=The Bottle Let Me Down
TTITLE10=High On A Hilltop
TTITLE11=I'll Look Over You
TTITLE12=The Fugitive
TTITLE13=House Of Memories
TTITLE14=All Of Me Belongs To You
TTITLE15=Mary's Fine
TTITLE16=Someone Told My Story
TTITLE17=Go Home
TTITLE18=Whatever Happened To Me
TTITLE19=Loneliness Is Eating Me Alive
TTITLE20=Threw Away The Rose
TTITLE21=Branded Man
TTITLE22=You Don't Have Very Far To Go
TTITLE23=Somewhere Between
TTITLE24=Sing Me Back Home
TTITLE25=The Son Of Hickory Holler's Tramp
TTITLE26=Seeing Eye Dog
EXTD=Years 1962 - 1994
EXTT0=
EXTT1=
EXTT2=
EXTT3=
EXTT4=
EXTT5=
EXTT6=
EXTT7=
EXTT8=
EXTT9=
EXTT10=
EXTT11=
EXTT12=
EXTT13=
EXTT14=
EXTT15=
EXTT16=
EXTT17=
EXTT18=
EXTT19=
EXTT20=
EXTT21=
EXTT22=
EXTT23=
EXTT24=
EXTT25=
EXTT26=
PLAYORDER=
